<svg width="100" height="100" viewBox="0 0 100 100" fill="none" xmlns="http://www.w3.org/2000/svg">
<path d="M19.5397 27.621C24.0029 27.621 27.621 24.0029 27.621 19.5397C27.621 15.0766 24.0029 11.4585 19.5397 11.4585C15.0766 11.4585 11.4585 15.0766 11.4585 19.5397C11.4585 24.0029 15.0766 27.621 19.5397 27.621Z" stroke="#333333" stroke-width="4" stroke-linecap="round" stroke-linejoin="round"/>
<path d="M19.5397 88.5419C24.0029 88.5419 27.621 84.9238 27.621 80.4606C27.621 75.9975 24.0029 72.3794 19.5397 72.3794C15.0766 72.3794 11.4585 75.9975 11.4585 80.4606C11.4585 84.9238 15.0766 88.5419 19.5397 88.5419Z" stroke="#333333" stroke-width="4" stroke-linecap="round" stroke-linejoin="round"/>
<path d="M19.5397 58.0814C24.0029 58.0814 27.621 54.4633 27.621 50.0002C27.621 45.537 24.0029 41.9189 19.5397 41.9189C15.0766 41.9189 11.4585 45.537 11.4585 50.0002C11.4585 54.4633 15.0766 58.0814 19.5397 58.0814Z" stroke="#333333" stroke-width="4" stroke-linecap="round" stroke-linejoin="round"/>
<path d="M84.8116 11.4585H40.0535C37.9936 11.4585 36.3237 13.1284 36.3237 15.1883V23.8914C36.3237 25.9513 37.9936 27.6212 40.0535 27.6212H84.8116C86.8716 27.6212 88.5414 25.9513 88.5414 23.8914V15.1883C88.5414 13.1284 86.8716 11.4585 84.8116 11.4585Z" stroke="#333333" stroke-width="4" stroke-linecap="round" stroke-linejoin="round"/>
<path d="M84.8116 72.3789H40.0535C37.9936 72.3789 36.3237 74.0488 36.3237 76.1087V84.8118C36.3237 86.8717 37.9936 88.5416 40.0535 88.5416H84.8116C86.8716 88.5416 88.5414 86.8717 88.5414 84.8118V76.1087C88.5414 74.0488 86.8716 72.3789 84.8116 72.3789Z" stroke="#333333" stroke-width="4" stroke-linecap="round" stroke-linejoin="round"/>
<path d="M84.8116 41.9189H40.0535C37.9936 41.9189 36.3237 43.5888 36.3237 45.6487V54.3519C36.3237 56.4118 37.9936 58.0817 40.0535 58.0817H84.8116C86.8716 58.0817 88.5414 56.4118 88.5414 54.3519V45.6487C88.5414 43.5888 86.8716 41.9189 84.8116 41.9189Z" stroke="#333333" stroke-width="4" stroke-linecap="round" stroke-linejoin="round"/>
</svg>
