<svg width="100" height="100" viewBox="0 0 100 100" fill="none" xmlns="http://www.w3.org/2000/svg">
<path fill-rule="evenodd" clip-rule="evenodd" d="M33.3333 39.5835C39.0894 39.5835 43.75 34.9229 43.75 29.1668C43.75 23.4108 39.0894 18.7502 33.3333 18.7502C27.5773 18.7502 22.9167 23.4108 22.9167 29.1668C22.9167 34.9229 27.5773 39.5835 33.3333 39.5835ZM33.3333 43.7502C41.3906 43.7502 47.9167 37.2241 47.9167 29.1668C47.9167 21.1095 41.3906 14.5835 33.3333 14.5835C25.276 14.5835 18.75 21.1095 18.75 29.1668C18.75 37.2241 25.276 43.7502 33.3333 43.7502Z" fill="#333333"/>
<path fill-rule="evenodd" clip-rule="evenodd" d="M12.0129 58.5094C10.7199 59.6844 10.4167 60.5886 10.4167 61.2498V68.7498H56.25V61.2498C56.25 60.5886 55.9467 59.6844 54.6538 58.5094C53.3352 57.3113 51.3058 56.148 48.7358 55.1342C43.5917 53.1053 37.3404 52.0832 33.3333 52.0832C29.3262 52.0832 23.075 53.1053 17.9309 55.1342C15.3609 56.148 13.3314 57.3113 12.0129 58.5094ZM33.3333 47.9165C24.2942 47.9165 6.25 52.3832 6.25 61.2498V72.9165H60.4167V61.2498C60.4167 52.3832 42.3723 47.9165 33.3333 47.9165Z" fill="#333333"/>
<path fill-rule="evenodd" clip-rule="evenodd" d="M72.9167 43.7502C76.3706 43.7502 79.1667 40.9541 79.1667 37.5002C79.1667 34.0462 76.3706 31.2502 72.9167 31.2502C69.4627 31.2502 66.6667 34.0462 66.6667 37.5002C66.6667 40.9541 69.4627 43.7502 72.9167 43.7502ZM72.9167 47.9168C78.6719 47.9168 83.3333 43.2554 83.3333 37.5002C83.3333 31.745 78.6719 27.0835 72.9167 27.0835C67.1615 27.0835 62.5 31.745 62.5 37.5002C62.5 43.2554 67.1615 47.9168 72.9167 47.9168Z" fill="#333333"/>
<path fill-rule="evenodd" clip-rule="evenodd" d="M58.3331 68.7502H89.5831V63.1945C89.5831 62.777 89.4188 62.1666 88.5492 61.3106C87.6434 60.4187 86.2027 59.5114 84.3034 58.6997C80.4863 57.0687 75.8352 56.2502 72.9165 56.2502C69.9975 56.2502 65.3467 57.0687 61.5296 58.6997C60.1023 59.3097 58.934 59.9737 58.0569 60.6445C57.6498 59.2806 56.8348 58.0702 55.8965 57.0606C60.5192 53.7481 68.2667 52.0835 72.9165 52.0835C79.8696 52.0835 93.7498 55.8058 93.7498 63.1945V68.7502V72.9168H89.5831H58.3331V68.7502Z" fill="#333333"/>
</svg>
