<svg width="100" height="100" viewBox="0 0 100 100" fill="none" xmlns="http://www.w3.org/2000/svg">
<path d="M39.8721 50.2781C40.6252 51.0531 41.6689 51.5406 42.8283 51.5625H42.8314C42.8408 51.5625 42.8564 51.5625 42.8689 51.5625C43.8002 51.5625 44.6439 51.1875 45.2596 50.5781L50.5814 45.2563C51.1877 44.6438 51.5658 43.8 51.5658 42.8656C51.5658 42.8531 51.5658 42.8406 51.5658 42.8281V42.8313C51.5439 41.6688 51.0564 40.6281 50.2846 39.875L48.5221 38.1125C48.6783 37.7604 48.8252 37.4052 48.9627 37.0469L51.4533 37.0594C51.5252 37.0656 51.6064 37.0656 51.6908 37.0656C53.7189 37.0656 55.3721 35.4719 55.4689 33.4688V33.4594V25.9375C55.3721 23.925 53.7158 22.3313 51.6908 22.3313C51.6064 22.3313 51.5252 22.3344 51.4439 22.3406H51.4564H48.9658C48.8283 21.9781 48.6783 21.6219 48.5221 21.2688L50.2939 19.5156C51.0783 18.8188 51.5689 17.8063 51.5689 16.6781C51.5689 15.6969 51.1971 14.8031 50.5846 14.1281L50.5877 14.1313L45.2689 8.8125C44.5971 8.20312 43.7033 7.83125 42.7221 7.83125C41.5939 7.83125 40.5814 8.325 39.8846 9.10625L39.8814 9.10938L38.1189 10.8719C37.7669 10.7156 37.4117 10.5688 37.0533 10.4313L37.0658 7.9375C37.0721 7.86563 37.0721 7.78438 37.0721 7.7C37.0721 5.67188 35.4783 4.01875 33.4752 3.92188H33.4658H25.9408C23.9283 4.01875 22.3346 5.675 22.3346 7.7C22.3346 7.78438 22.3377 7.86563 22.3439 7.94688V7.93438V10.425C21.9814 10.5625 21.6283 10.7094 21.2721 10.8688L19.5189 9.09688C18.8221 8.30938 17.8096 7.8125 16.6814 7.8125C15.7002 7.8125 14.8033 8.1875 14.1314 8.80312L14.1346 8.8L8.81582 14.1188C8.20645 14.7406 7.82832 15.5938 7.82832 16.5344C7.82832 16.7281 7.84395 16.9156 7.8752 17.1L7.87207 17.0813C8.0252 18.0375 8.46895 18.8688 9.10957 19.5031L10.8721 21.2625C10.7127 21.6188 10.5627 21.975 10.4252 22.3406L7.93457 22.3281C7.8627 22.3219 7.77832 22.3219 7.69707 22.3219C5.67207 22.3219 4.01895 23.9156 3.91895 25.9156V25.925V33.45C4.01582 35.4625 5.67207 37.0563 7.69707 37.0563C7.78145 37.0563 7.8627 37.0531 7.94395 37.0469H7.93145H10.4221C10.5596 37.4094 10.7096 37.7625 10.8658 38.1188L9.09707 39.8719C8.32207 40.6281 7.8377 41.675 7.81895 42.8344V42.8375C7.81895 42.85 7.81895 42.8625 7.81895 42.875C7.81895 43.8031 8.19395 44.6438 8.80332 45.2531L14.1221 50.575C14.7346 51.1813 15.5783 51.5563 16.5127 51.5563C16.5252 51.5563 16.5377 51.5563 16.5471 51.5563C17.7096 51.5344 18.7502 51.0469 19.5033 50.275L21.2658 48.5156C21.6221 48.675 21.9783 48.8219 22.3408 48.9625L22.3283 51.45C22.3221 51.5219 22.3221 51.6031 22.3221 51.6875C22.3221 53.7156 23.9158 55.3688 25.9189 55.4656H25.9283H33.4502C35.4627 55.3688 37.0564 53.7125 37.0564 51.6875C37.0564 51.6031 37.0533 51.5219 37.0471 51.4406V51.4531V48.9594C37.4096 48.8219 37.7658 48.6719 38.1189 48.5156L39.8721 50.2781ZM32.3627 50.7813H27.0221L27.0408 47.4281C27.0408 47.3719 27.0127 47.325 27.0096 47.2688C26.9627 46.9406 26.8814 46.6438 26.7689 46.3625L26.7783 46.3875C26.5939 45.9938 26.3002 45.6781 25.9346 45.4719L25.9252 45.4656C25.7908 45.375 25.6346 45.2938 25.4721 45.2313L25.4564 45.225C25.4127 45.2094 25.3814 45.175 25.3346 45.1625C24.0064 44.7812 22.8502 44.2906 21.7721 43.6781L21.8533 43.7188C21.5439 43.55 21.1721 43.45 20.7783 43.45H20.7752C20.7189 43.45 20.6752 43.4625 20.6158 43.4625C20.0377 43.4813 19.5189 43.7125 19.1252 44.0781L19.0471 44.1094L16.7814 46.6063L12.8877 42.7125L15.2721 40.3531L15.3064 40.2688C15.6658 39.8844 15.8971 39.3719 15.9221 38.8094V38.8031C15.9252 38.7375 15.9377 38.6875 15.9377 38.6219C15.9377 38.6188 15.9377 38.6156 15.9377 38.6125C15.9377 38.2188 15.8377 37.8469 15.6627 37.525L15.6689 37.5375C15.0971 36.5406 14.6064 35.3906 14.2533 34.1781L14.2252 34.0656C14.2127 34.0188 14.1752 33.9844 14.1596 33.9375C14.0283 33.6406 13.8752 33.3844 13.6939 33.1469L13.7002 33.1562C13.5971 33.05 13.4846 32.9531 13.3627 32.8688L13.3564 32.8625C13.2502 32.775 13.1346 32.6969 13.0096 32.6281L12.9971 32.6219C12.8783 32.5656 12.7346 32.5188 12.5877 32.4844L12.5721 32.4813C12.4408 32.4375 12.2877 32.4063 12.1283 32.3906H12.1189C12.0658 32.3875 12.0221 32.3594 11.9689 32.3594H8.60332V27.0188L11.9689 27.0344C12.4439 27.0219 12.8814 26.8656 13.2408 26.6094L13.2346 26.6156C13.3096 26.5719 13.3752 26.5281 13.4346 26.4813L13.4283 26.4844C13.7689 26.2094 14.0252 25.8406 14.1627 25.4219L14.1658 25.4063C14.1752 25.375 14.2096 25.3594 14.2189 25.3281C14.6002 24.0031 15.0908 22.85 15.7033 21.775L15.6627 21.8531C15.8314 21.5406 15.9314 21.1688 15.9314 20.775C15.9346 20.7094 15.9189 20.6594 15.9158 20.5938C15.8908 20.025 15.6658 19.5156 15.3064 19.1281L15.2721 19.0438L12.8908 16.6625L16.6658 12.8875L19.0252 15.2719C19.0814 15.3281 19.1721 15.3094 19.2314 15.3594C19.6064 15.7 20.0971 15.9219 20.6377 15.9531H20.6439L20.6971 15.9688C21.1189 15.9688 21.5127 15.8563 21.8533 15.6625L21.8408 15.6688C22.8346 15.0969 23.9846 14.6062 25.1971 14.2562L25.3096 14.2281C25.3564 14.2156 25.3908 14.1781 25.4377 14.1625C25.6064 14.0969 25.7502 14.0219 25.8846 13.9344L25.8752 13.9406C26.2439 13.7 26.5439 13.3844 26.7564 13.0094L26.7627 12.9969C26.8158 12.8813 26.8627 12.7438 26.8939 12.6031L26.8971 12.5875C26.9408 12.4531 26.9752 12.2938 26.9908 12.1281V12.1188C26.9939 12.0688 27.0221 12.0219 27.0221 11.9719V8.60625H32.3658L32.3471 11.9594C32.3471 12.0125 32.3752 12.0594 32.3783 12.1125C32.3939 12.2844 32.4252 12.4438 32.4752 12.5969L32.4721 12.5813C32.5096 12.7375 32.5564 12.875 32.6127 13.0063L32.6064 12.9906C32.6814 13.1313 32.7627 13.2531 32.8564 13.3656L32.8533 13.3625C32.9408 13.4875 33.0346 13.6 33.1408 13.7C33.2439 13.7844 33.3564 13.8656 33.4783 13.9313L33.4908 13.9375C33.6158 14.0219 33.7627 14.0969 33.9127 14.1563L33.9283 14.1625C33.9752 14.1781 34.0096 14.2156 34.0596 14.2281C35.3846 14.6094 36.5346 15.0969 37.6096 15.7063L37.5283 15.6656C37.8439 15.8531 38.2221 15.9656 38.6283 15.9656C39.2127 15.9656 39.7439 15.7344 40.1346 15.3563C40.1939 15.3094 40.2783 15.3281 40.3314 15.275L42.7127 12.8938L46.4908 16.6719L44.1064 19.0313L44.0721 19.1156C43.7127 19.5 43.4846 20.0094 43.4596 20.5688V20.575C43.4564 20.6406 43.4408 20.6938 43.4439 20.7594C43.4439 20.7625 43.4439 20.7656 43.4439 20.7656C43.4439 21.1594 43.5439 21.5281 43.7189 21.8531L43.7127 21.8406C44.2814 22.8375 44.7752 23.9906 45.1283 25.2063L45.1564 25.3219C45.1658 25.3563 45.2033 25.3719 45.2127 25.4031C45.3564 25.8344 45.6127 26.1969 45.9439 26.4688L45.9471 26.4719C46.0033 26.5156 46.0721 26.5594 46.1377 26.6031L46.1471 26.6094C46.4971 26.8625 46.9346 27.0156 47.4064 27.0281H50.7752V32.3688L47.4096 32.3531C47.3596 32.3531 47.3189 32.3781 47.2721 32.3813C47.0846 32.3969 46.9127 32.4344 46.7471 32.4875L46.7627 32.4844C46.6221 32.5188 46.5002 32.5594 46.3846 32.6125L46.4002 32.6063C46.2471 32.6875 46.1158 32.7781 45.9939 32.8813L45.9971 32.8781C45.8814 32.9594 45.7814 33.0469 45.6877 33.1438C45.6002 33.25 45.5158 33.3688 45.4471 33.4969L45.4408 33.5094C45.3596 33.6313 45.2877 33.7719 45.2283 33.9188L45.2221 33.9344C45.2064 33.9813 45.1689 34.0156 45.1533 34.0656C44.7752 35.3875 44.2846 36.5375 43.6752 37.6125L43.7158 37.5344C43.5471 37.8469 43.4471 38.2156 43.4471 38.6094C43.4471 38.6125 43.4471 38.6156 43.4471 38.6188C43.4439 38.6781 43.4564 38.725 43.4596 38.7844C43.4814 39.3594 43.7096 39.875 44.0721 40.2625L44.1064 40.3438L46.6033 42.6063L42.7127 46.5L40.3471 44.1156L40.2689 44.0844C39.8846 43.7219 39.3689 43.4906 38.8002 43.4688H38.7971C38.7346 43.4656 38.6877 43.4531 38.6252 43.4531C38.2283 43.4531 37.8564 43.5531 37.5314 43.7281L37.5439 43.7219C36.5471 44.2906 35.3939 44.7844 34.1783 45.1375L34.0627 45.1656C34.0096 45.1813 33.9752 45.2188 33.9221 45.2375C33.6252 45.3719 33.3689 45.525 33.1346 45.7063L33.1439 45.7C33.0471 45.7969 32.9596 45.9 32.8783 46.0125L32.8721 46.0188C32.7783 46.1313 32.6908 46.2594 32.6189 46.3938L32.6127 46.4063C32.5627 46.5188 32.5158 46.6531 32.4846 46.7906L32.4814 46.8063C32.4346 46.9438 32.4033 47.1063 32.3877 47.2719V47.2813C32.3846 47.3313 32.3596 47.375 32.3596 47.425L32.3627 50.7813ZM38.7346 29.6938C38.7346 24.7 34.6877 20.6531 29.6939 20.6531C24.7002 20.6531 20.6533 24.7 20.6533 29.6938C20.6533 34.6875 24.7002 38.7344 29.6939 38.7344C34.6846 38.7281 38.7252 34.6844 38.7346 29.6969V29.6938ZM29.6939 34.0469C27.2908 34.0469 25.3408 32.1 25.3408 29.6938C25.3408 27.2875 27.2877 25.3406 29.6939 25.3406C32.0971 25.3406 34.0471 27.2875 34.0471 29.6938C34.0439 32.0969 32.0971 34.0406 29.6971 34.0469H29.6939ZM91.9627 61.1813H89.2221C89.0533 60.7344 88.8689 60.2938 88.6721 59.8594L90.6189 57.9344C91.4283 57.2188 91.9346 56.1781 91.9346 55.0188C91.9346 54.0156 91.5564 53.1031 90.9346 52.4125L90.9377 52.4156L85.2846 46.7625C84.6564 46.1438 83.7939 45.7625 82.8408 45.7625C82.8283 45.7625 82.8158 45.7625 82.8033 45.7625C81.6096 45.7875 80.5408 46.2844 79.7689 47.0781L77.8283 49.0188C77.395 48.8229 76.9575 48.6417 76.5158 48.475L76.5283 45.7313C76.5346 45.6563 76.5377 45.5656 76.5377 45.4781C76.5377 43.4063 74.9096 41.7125 72.8658 41.6094H72.8564H64.8658C62.8064 41.7125 61.1783 43.4094 61.1783 45.4844C61.1783 45.5719 61.1814 45.6594 61.1877 45.7469V45.7344V48.475C60.7439 48.6438 60.3064 48.825 59.8752 49.0219L57.9408 47.075C57.1689 46.2813 56.0971 45.7813 54.9096 45.7563H54.9033C54.8908 45.7563 54.8783 45.7563 54.8658 45.7563C53.9158 45.7563 53.0564 46.1375 52.4283 46.7563L46.7721 52.4094C46.1533 53.0938 45.7752 54.0031 45.7752 55.0031C45.7752 56.1625 46.2846 57.2031 47.0908 57.9125L47.0939 57.9156L49.0346 59.8563C48.8377 60.2906 48.6533 60.7313 48.4846 61.1813L45.7439 61.1688C45.6689 61.1625 45.5783 61.1594 45.4908 61.1594C43.4189 61.1594 41.7252 62.7875 41.6221 64.8313V64.8406V72.8375C41.7252 74.8938 43.4189 76.5188 45.4908 76.5188C45.5814 76.5188 45.6689 76.5156 45.7564 76.5094H45.7439H48.4846C48.6533 76.9531 48.8346 77.3906 49.0314 77.825L47.0877 79.7563C46.2908 80.5313 45.7908 81.6063 45.7689 82.7969C45.7689 82.8094 45.7689 82.825 45.7689 82.8406C45.7689 83.7906 46.1502 84.65 46.7689 85.2719L52.4221 90.925C53.0471 91.5469 53.9127 91.9313 54.8658 91.9313C54.8752 91.9313 54.8877 91.9313 54.8971 91.9313C56.0939 91.9063 57.1689 91.4 57.9408 90.6031L59.8721 88.6688C60.3096 88.8688 60.7502 89.05 61.2002 89.2188L61.1877 91.9563C61.1814 92.0313 61.1783 92.1219 61.1783 92.2094C61.1783 94.2813 62.8064 95.9719 64.8502 96.075H64.8596H72.8502C74.9096 95.9719 76.5377 94.2781 76.5377 92.2031C76.5377 92.1156 76.5346 92.0281 76.5283 91.9438V91.9563V89.2125C76.9721 89.0438 77.4096 88.8625 77.8471 88.6656L79.7814 90.6219C80.5564 91.4094 81.6252 91.9031 82.8096 91.9281H82.8315C82.8346 91.9281 82.8408 91.9281 82.8439 91.9281C83.7939 91.9281 84.6564 91.5469 85.2846 90.9281L90.9252 85.2813C91.5502 84.6563 91.9377 83.7906 91.9377 82.8344C91.9377 82.8313 91.9377 82.825 91.9377 82.8219C91.9189 81.6219 91.4189 80.5406 90.6252 79.7594L88.6814 77.8156C88.8783 77.3844 89.0564 76.95 89.2221 76.5063L91.9658 76.5188C92.0408 76.525 92.1314 76.5281 92.2189 76.5281C94.2908 76.5281 95.9814 74.9 96.0846 72.8563V72.8469V64.8563C95.9814 62.8 94.2908 61.1719 92.2189 61.1719C92.1283 61.1719 92.0408 61.175 91.9533 61.1813H91.9658H91.9627ZM91.3939 71.8313L87.6689 71.8125C87.6252 71.8125 87.5908 71.8344 87.5502 71.8375C87.3533 71.8531 87.1721 71.8906 87.0002 71.95L87.0158 71.9469C86.5939 72.0875 86.2346 72.3156 85.9408 72.6094C85.8564 72.7125 85.7752 72.8281 85.7065 72.95L85.7002 72.9625C85.6189 73.0875 85.5439 73.2281 85.4846 73.3781L85.4783 73.3938C85.4596 73.4438 85.4221 73.4813 85.4064 73.5313C85.0064 74.9469 84.4814 76.1781 83.8252 77.325L83.8689 77.2438C83.7002 77.5531 83.6002 77.925 83.6002 78.3188C83.6002 78.325 83.6002 78.3313 83.6002 78.3375C83.6002 78.3844 83.6096 78.4219 83.6127 78.4719C83.6283 79.0531 83.8596 79.5781 84.2314 79.9719L84.2658 80.0531L86.8971 82.6844L82.6783 86.9031L80.0721 84.2719C80.0471 84.2469 80.0096 84.2594 79.9846 84.2344C79.6002 83.875 79.0908 83.6469 78.5252 83.6219H78.5189C78.4564 83.6188 78.4064 83.6063 78.3439 83.6063C78.3377 83.6063 78.3346 83.6063 78.3283 83.6063C77.9377 83.6063 77.5689 83.7063 77.2502 83.8813L77.2627 83.875C76.1971 84.4813 74.9596 85.0094 73.6627 85.3875L73.5377 85.4188C73.4846 85.4344 73.4502 85.4719 73.4002 85.4906C73.2439 85.5531 73.1096 85.6219 72.9814 85.7063L72.9908 85.7C72.3627 86.1 71.9346 86.7625 71.8564 87.5281V87.5375C71.8533 87.5844 71.8283 87.625 71.8283 87.675V91.3969H65.8596L65.8783 87.6844C65.8783 87.6344 65.8533 87.5906 65.8502 87.5406C65.8346 87.3688 65.8033 87.2125 65.7533 87.0625L65.7564 87.0781C65.6314 86.4938 65.2658 86.0125 64.7721 85.7344L64.7627 85.7281C64.6252 85.6344 64.4721 85.5531 64.3064 85.4906L64.2908 85.4844C64.2471 85.4688 64.2158 85.4344 64.1689 85.4219C62.7502 85.0188 61.5127 84.4906 60.3627 83.8344L60.4471 83.8781C60.1377 83.7125 59.7721 83.6156 59.3814 83.6156C59.3783 83.6156 59.3783 83.6156 59.3752 83.6156C59.3002 83.6188 59.2252 83.625 59.1533 83.6344H59.1627C58.6064 83.6625 58.1064 83.8844 57.7252 84.2344L57.7283 84.2313C57.7002 84.2563 57.6596 84.2438 57.6314 84.2719L55.0033 86.9031L50.7846 82.6844L53.4221 80.0719C53.4471 80.0469 53.4377 80.0063 53.4596 79.9813C53.8158 79.5969 54.0439 79.0906 54.0689 78.5313V78.525C54.0721 78.4594 54.0877 78.4063 54.0846 78.3406C54.0846 78.3375 54.0846 78.3344 54.0846 78.3344C54.0846 77.9406 53.9846 77.5719 53.8096 77.2469L53.8158 77.2594C53.2064 76.1938 52.6814 74.9625 52.3033 73.6656L52.2721 73.5438C52.2596 73.4938 52.2221 73.4625 52.2064 73.4156C52.1408 73.25 52.0658 73.1063 51.9783 72.9719L51.9846 72.9813C51.9127 72.85 51.8377 72.7375 51.7502 72.6344L51.7533 72.6375C51.4408 72.2813 51.0158 72.0281 50.5346 71.9375L50.5221 71.9344C50.4377 71.9094 50.3346 71.8875 50.2283 71.875H50.2158C50.1471 71.8688 50.0877 71.8344 50.0189 71.8344H46.2971V65.8656L50.0189 65.8844C50.6127 65.8656 51.1471 65.625 51.5408 65.2438C51.7033 65.0813 51.8377 64.8875 51.9346 64.675L51.9408 64.6625C52.0439 64.4906 52.2189 64.3781 52.2752 64.175C52.6846 62.7531 53.2096 61.5188 53.8627 60.3656L53.8189 60.45C53.9908 60.1375 54.0908 59.7656 54.0908 59.3719C54.0939 59.3125 54.0814 59.2656 54.0783 59.2063C54.0596 58.6281 53.8283 58.1094 53.4596 57.7188L53.4314 57.6469L50.8002 55.0094L55.0189 50.7906L57.6314 53.4281C57.6877 53.4844 57.7721 53.4625 57.8314 53.5125C58.2158 53.8719 58.7283 54.1 59.2908 54.125H59.2971C59.7189 54.125 60.1158 54.0125 60.4564 53.8156L60.4439 53.8219C61.5096 53.2094 62.7439 52.6844 64.0408 52.3094L64.1596 52.2781C64.2064 52.2656 64.2408 52.2281 64.2877 52.2125C64.4533 52.15 64.5939 52.075 64.7252 51.9875L64.7158 51.9938C65.2346 51.7156 65.6096 51.2344 65.7408 50.6594L65.7439 50.6469C65.7908 50.5063 65.8252 50.3438 65.8408 50.175V50.1656C65.8439 50.1156 65.8689 50.075 65.8689 50.025V46.3031H71.8377L71.8189 50.0156C71.8189 50.0656 71.8439 50.1031 71.8471 50.1531C71.8658 50.3563 71.9064 50.5438 71.9689 50.7219L71.9627 50.7063C71.9877 50.8031 72.0158 50.8813 72.0471 50.9594L72.0408 50.9469C72.3096 51.5906 72.8471 52.0813 73.5096 52.2781L73.5252 52.2812C74.9439 52.6875 76.1752 53.2125 77.3283 53.8656L77.2439 53.8219C77.5721 54.0094 77.9658 54.1219 78.3877 54.1219C78.9533 54.0969 79.4658 53.8719 79.8533 53.5125C79.9127 53.4656 79.9971 53.4844 80.0533 53.4313L82.6846 50.8L86.9033 55.0188L84.2658 57.6281L84.2314 57.7094C83.8689 58.0938 83.6408 58.6063 83.6158 59.1719V59.1781C83.6127 59.2406 83.6002 59.2906 83.6002 59.3531C83.6002 59.3563 83.6002 59.3625 83.6002 59.3656C83.6002 59.7594 83.7002 60.1313 83.8752 60.4531L83.8689 60.4406C84.4814 61.5094 85.0096 62.7438 85.3846 64.0438L85.4127 64.1625C85.4221 64.2 85.4627 64.2156 85.4721 64.25C85.6158 64.6781 85.8689 65.0406 86.2002 65.3094L86.2033 65.3125C86.2627 65.3563 86.3283 65.4031 86.3971 65.4438L86.4064 65.45C86.7596 65.7031 87.1939 65.8594 87.6658 65.8719H87.6689H91.3908L91.3939 71.8313ZM68.8471 59.3875C63.6252 59.3875 59.3877 63.6219 59.3877 68.8438C59.3877 74.0656 63.6221 78.3 68.8439 78.3C74.0658 78.3 78.3002 74.0688 78.3002 68.8469C78.2939 63.625 74.0658 59.3938 68.8471 59.3875ZM68.8471 73.6156C66.2127 73.6156 64.0752 71.4813 64.0752 68.8469C64.0752 66.2125 66.2096 64.0781 68.8439 64.0781C71.4783 64.0781 73.6127 66.2125 73.6127 68.8469C73.6064 71.4781 71.4752 73.6125 68.8471 73.6156Z" fill="#333333"/>
</svg>
