<svg width="30" height="30" viewBox="0 0 30 30" fill="none" xmlns="http://www.w3.org/2000/svg">
<path fill-rule="evenodd" clip-rule="evenodd" d="M7.50932 4.2587C9.6094 2.15861 13.1534 2.31826 14.6156 4.93841L15.4269 6.39207C16.3818 8.1031 15.9749 10.2619 14.577 11.6769C14.5584 11.7024 14.4596 11.8461 14.4474 12.0971C14.4318 12.4175 14.5455 13.1585 15.6935 14.3065C16.8411 15.4541 17.582 15.5682 17.9026 15.5526C18.1539 15.5404 18.2976 15.4417 18.3231 15.423C19.7381 14.0252 21.897 13.6182 23.608 14.5731L25.0616 15.3845C27.6818 16.8467 27.8414 20.3906 25.7414 22.4907C24.618 23.614 23.1244 24.6121 21.3691 24.6787C18.768 24.7774 14.4489 24.1056 10.1717 19.8284C5.89445 15.5511 5.22273 11.2321 5.32133 8.63091C5.38788 6.87567 6.38599 5.38202 7.50932 4.2587ZM12.9784 5.85216C12.2295 4.51047 10.2174 4.20223 8.83514 5.58452C7.86595 6.55371 7.23588 7.62347 7.19499 8.70195C7.11275 10.8711 7.6483 14.6534 11.4975 18.5025C15.3468 22.3517 19.1289 22.8872 21.2981 22.805C22.3766 22.7641 23.4464 22.1341 24.4155 21.1649C25.7978 19.7826 25.4895 17.7705 24.1479 17.0217L22.6943 16.2105C21.79 15.7057 20.5198 15.878 19.6281 16.7696C19.5405 16.8571 18.983 17.3774 17.9938 17.4255C16.9809 17.4747 15.755 17.0196 14.3678 15.6324C12.98 14.2446 12.525 13.0184 12.5746 12.0054C12.6231 11.016 13.1434 10.459 13.2304 10.3719C14.122 9.4803 14.2943 8.21008 13.7896 7.30582L12.9784 5.85216Z" fill="white"/>
</svg>
