<svg width="100" height="100" viewBox="0 0 100 100" fill="none" xmlns="http://www.w3.org/2000/svg">
<path d="M41.6667 37.4998H70.8333M41.6667 54.1665H70.8333M29.1667 37.4998H29.2083M29.1667 54.1665H29.2083M87.5 83.3332L73.6487 76.4073C72.5987 75.8823 72.0737 75.6198 71.5233 75.4348C71.035 75.2707 70.5321 75.1519 70.0217 75.0803C69.4467 74.9998 68.8596 74.9998 67.6858 74.9998H25.8333C21.1662 74.9998 18.8327 74.9998 17.0501 74.0915C15.482 73.2928 14.2072 72.0178 13.4083 70.4498C12.5 68.6673 12.5 66.3336 12.5 61.6665V29.9998C12.5 25.3327 12.5 22.9992 13.4083 21.2166C14.2072 19.6485 15.482 18.3737 17.0501 17.5748C18.8327 16.6665 21.1662 16.6665 25.8333 16.6665H74.1667C78.8337 16.6665 81.1675 16.6665 82.95 17.5748C84.5179 18.3737 85.7929 19.6485 86.5917 21.2166C87.5 22.9992 87.5 25.3328 87.5 29.9998V83.3332Z" stroke="black" stroke-width="4" stroke-linecap="round" stroke-linejoin="round"/>
</svg>
