<svg width="30" height="30" viewBox="0 0 30 30" fill="none" xmlns="http://www.w3.org/2000/svg">
<path fill-rule="evenodd" clip-rule="evenodd" d="M27.4961 15C27.4961 21.9035 21.8996 27.5 14.9961 27.5C8.09254 27.5 2.49609 21.9035 2.49609 15C2.49609 8.09644 8.09254 2.5 14.9961 2.5C21.8996 2.5 27.4961 8.09644 27.4961 15ZM15.444 11.728C14.2282 12.2337 11.7983 13.2804 8.15431 14.868C7.56258 15.1034 7.25261 15.3336 7.22438 15.5586C7.17669 15.9391 7.65308 16.0889 8.30179 16.2929C8.39003 16.3206 8.48146 16.3494 8.57518 16.3797C9.21342 16.5872 10.0719 16.83 10.5183 16.8396C10.9231 16.8484 11.375 16.6815 11.8738 16.3389C15.2785 14.0406 17.0361 12.879 17.1464 12.8539C17.2242 12.8362 17.3321 12.814 17.4052 12.879C17.4784 12.944 17.4711 13.067 17.4634 13.1C17.4162 13.3012 15.5462 15.0397 14.5785 15.9394C14.2769 16.2199 14.0629 16.4187 14.0191 16.4642C13.9211 16.566 13.8212 16.6622 13.7252 16.7547C13.1324 17.3264 12.6876 17.755 13.7499 18.455C14.2602 18.7914 14.6687 19.0695 15.0762 19.347C15.5212 19.6501 15.9651 19.9524 16.5395 20.3289C16.6857 20.4247 16.8255 20.5244 16.9616 20.6214C17.4795 20.9906 17.9447 21.3224 18.5196 21.2694C18.8536 21.2387 19.1986 20.9246 19.3739 19.9879C19.788 17.7741 20.602 12.9775 20.7901 11.001C20.8066 10.8278 20.7859 10.6062 20.7691 10.5089C20.7525 10.4116 20.7177 10.273 20.5912 10.1704C20.4415 10.0489 20.2102 10.0233 20.1069 10.025C19.6367 10.0334 18.9154 10.2842 15.444 11.728Z" stroke="white" stroke-width="2" stroke-linejoin="round"/>
</svg>
